<svg
  width="32"
  height="32"
  viewBox="0 0 32 32"
  fill="none"
  xmlns="http://www.w3.org/2000/svg"
>
  <style>
    path[data-path="1"] {
      fill: #003453;
    }
    path[data-path="2"] {
      fill: #ffc166;
    }
    @media (prefers-color-scheme: dark) {
      path[data-path="1"] {
        fill: #003453;
      }
      path[data-path="2"] {
        fill: #ffc166;
      }
    }
  </style>
  <path
    data-path="1"
    d="M0 4C0 1.79086 1.79086 0 4 0H28C30.2091 0 32 1.79086 32 4V28C32 30.2091 30.2091 32 28 32H4C1.79086 32 0 30.2091 0 28V4Z"
  />
  <path
    data-path="2"
    fill-rule="evenodd"
    clip-rule="evenodd"
    d="M9.56066 5.02513C10.217 4.36875 11.1073 4 12.0355 4H24.5C26.433 4 28 5.567 28 7.5V19.9645C28 20.8927 27.6313 21.783 26.9749 22.4393L26.9393 22.4748L21.7071 27.7071V27.7071C21.3166 28.0976 20.6834 28.0976 20.2929 27.7071C20.218 27.6323 20.1575 27.5485 20.1114 27.4592C19.9769 27.1992 19.9642 26.8925 20.0732 26.6237C20.122 26.5033 20.1953 26.3905 20.2929 26.2929L25.5251 21.0606C26.1109 20.4748 26.1109 19.5251 25.5251 18.9393L13.0607 6.47484C12.4768 5.89097 11.5313 5.88906 10.9451 6.46911L5.70711 11.7071C5.31658 12.0976 4.68342 12.0976 4.29289 11.7071C4.09763 11.5118 4 11.2559 4 11C4 10.7441 4.09763 10.4881 4.29289 10.2929L9.52513 5.06063L9.53399 5.05179L9.56066 5.02513ZM26 7.5V16.5858L15.4142 6H24.5C25.3284 6 26 6.67157 26 7.5ZM14.7071 18.7071C15.0976 18.3166 15.0976 17.6834 14.7071 17.2929C14.3166 16.9024 13.6834 16.9024 13.2929 17.2929L4.29289 26.2929C3.90237 26.6834 3.90237 27.3166 4.29289 27.7071C4.68342 28.0976 5.31658 28.0976 5.70711 27.7071L14.7071 18.7071Z"
  />
</svg>
