<svg width="97" height="96" viewBox="0 0 97 96" fill="none" xmlns="http://www.w3.org/2000/svg">
<g clip-path="url(#clip0_1862:17136)">
<circle cx="53.5" cy="45" r="32" fill="#CCE2F0"/>
<path fill-rule="evenodd" clip-rule="evenodd" d="M57.1667 49H50.5V55.6667H57.1667V49ZM57.1667 65.6667H50.5V72.3333H57.1667V65.6667ZM50.5 82.3333H57.1667V89H50.5V82.3333ZM73.8333 49H67.1667V55.6667H73.8333V49ZM67.1667 65.6667H73.8333V72.3333H67.1667V65.6667ZM73.8333 82.3333H67.1667V89H73.8333V82.3333ZM83.8333 49H90.5V55.6667H83.8333V49ZM90.5 65.6667H83.8333V72.3333H90.5V65.6667ZM83.8333 82.3333H90.5V89H83.8333V82.3333Z" fill="#262626"/>
<mask id="path-3-inside-1_1862:17136" fill="white">
<path fill-rule="evenodd" clip-rule="evenodd" d="M40.0294 19C40.0294 21.9239 42.3997 24.2941 45.3235 24.2941C45.8042 24.2941 46.2699 24.2301 46.7125 24.11C47.5082 23.8943 48.5 24.4131 48.5 25.2375L48.5 34.8824C48.5 36.0519 47.5519 37 46.3824 37L37.4297 37C38.1104 38.1767 38.5 39.5429 38.5 41C38.5 45.4183 34.9183 49 30.5 49C26.0817 49 22.5 45.4183 22.5 41C22.5 39.5428 22.8896 38.1767 23.5703 37L14.6176 37C13.4481 37 12.5 36.0519 12.5 34.8824L12.5 25.9297C11.3233 26.6104 9.95715 27 8.5 27C4.08172 27 0.499999 23.4183 0.499999 19C0.499999 14.5817 4.08172 11 8.5 11C9.95715 11 11.3233 11.3896 12.5 12.0703L12.5 3.11765C12.5 1.9481 13.4481 0.999998 14.6176 0.999999L46.3824 1C47.5519 1 48.5 1.9481 48.5 3.11765L48.5 12.7625C48.5 13.5869 47.5082 14.1057 46.7125 13.89C46.2699 13.7699 45.8042 13.7059 45.3235 13.7059C42.3997 13.7059 40.0294 16.0761 40.0294 19Z"/>
</mask>
<path d="M46.7125 24.11L45.9274 21.2146L45.9274 21.2146L46.7125 24.11ZM48.5 25.2375L51.5 25.2375L48.5 25.2375ZM48.5 34.8824L45.5 34.8824L48.5 34.8824ZM37.4297 37L37.4297 34C36.3575 34 35.3668 34.5723 34.831 35.5011C34.2953 36.4299 34.296 37.574 34.8329 38.5022L37.4297 37ZM23.5703 37L26.1671 38.5022C26.704 37.574 26.7047 36.4299 26.169 35.5011C25.6332 34.5723 24.6425 34 23.5703 34L23.5703 37ZM12.5 25.9297L15.5 25.9297C15.5 24.8575 14.9277 23.8668 13.9989 23.331C13.0701 22.7953 11.926 22.796 10.9978 23.3329L12.5 25.9297ZM12.5 12.0703L10.9978 14.6671C11.926 15.204 13.0701 15.2047 13.9989 14.669C14.9277 14.1332 15.5 13.1425 15.5 12.0703L12.5 12.0703ZM48.5 3.11765L45.5 3.11765L48.5 3.11765ZM48.5 12.7625L51.5 12.7625L48.5 12.7625ZM46.7125 13.89L45.9274 16.7854L45.9274 16.7854L46.7125 13.89ZM45.3235 21.2941C44.0565 21.2941 43.0294 20.267 43.0294 19L37.0294 19C37.0294 23.5807 40.7428 27.2941 45.3235 27.2941L45.3235 21.2941ZM45.9274 21.2146C45.7383 21.2659 45.5366 21.2941 45.3235 21.2941L45.3235 27.2941C46.0718 27.2941 46.8014 27.1943 47.4977 27.0055L45.9274 21.2146ZM51.5 25.2375C51.5 23.4993 50.4379 22.2975 49.4336 21.7026C48.4501 21.12 47.1734 20.8767 45.9274 21.2146L47.4977 27.0055C47.0474 27.1276 46.6644 27.0359 46.3757 26.8648C46.0662 26.6815 45.5 26.1513 45.5 25.2375L51.5 25.2375ZM51.5 34.8824L51.5 25.2375L45.5 25.2375L45.5 34.8824L51.5 34.8824ZM46.3824 40C49.2087 40 51.5 37.7088 51.5 34.8824L45.5 34.8824C45.5 34.395 45.895 34 46.3824 34L46.3824 40ZM37.4297 40L46.3824 40L46.3824 34L37.4297 34L37.4297 40ZM41.5 41C41.5 39.0014 40.9643 37.1188 40.0266 35.4978L34.8329 38.5022C35.2566 39.2346 35.5 40.0843 35.5 41L41.5 41ZM30.5 52C36.5751 52 41.5 47.0751 41.5 41L35.5 41C35.5 43.7614 33.2614 46 30.5 46L30.5 52ZM19.5 41C19.5 47.0751 24.4249 52 30.5 52L30.5 46C27.7386 46 25.5 43.7614 25.5 41L19.5 41ZM20.9734 35.4978C20.0357 37.1188 19.5 39.0014 19.5 41L25.5 41C25.5 40.0843 25.7434 39.2346 26.1671 38.5022L20.9734 35.4978ZM14.6176 40L23.5703 40L23.5703 34L14.6176 34L14.6176 40ZM9.5 34.8824C9.5 37.7087 11.7912 40 14.6176 40L14.6176 34C15.105 34 15.5 34.395 15.5 34.8824L9.5 34.8824ZM9.5 25.9297L9.5 34.8824L15.5 34.8824L15.5 25.9297L9.5 25.9297ZM10.9978 23.3329C10.2654 23.7566 9.4157 24 8.5 24L8.5 30C10.4986 30 12.3812 29.4643 14.0022 28.5266L10.9978 23.3329ZM8.5 24C5.73857 24 3.5 21.7614 3.5 19L-2.5 19C-2.5 25.0751 2.42487 30 8.5 30L8.5 24ZM3.5 19C3.5 16.2386 5.73857 14 8.5 14L8.5 8C2.42487 8 -2.5 12.9249 -2.5 19L3.5 19ZM8.5 14C9.4157 14 10.2654 14.2434 10.9978 14.6671L14.0022 9.47344C12.3812 8.53574 10.4986 8 8.5 8L8.5 14ZM9.5 3.11765L9.5 12.0703L15.5 12.0703L15.5 3.11765L9.5 3.11765ZM14.6176 -2C11.7912 -2 9.5 0.29125 9.5 3.11765L15.5 3.11765C15.5 3.60495 15.105 4 14.6176 4L14.6176 -2ZM46.3824 -2L14.6176 -2L14.6176 4L46.3824 4L46.3824 -2ZM51.5 3.11765C51.5 0.291249 49.2088 -2 46.3824 -2L46.3824 4C45.895 4 45.5 3.60496 45.5 3.11765L51.5 3.11765ZM51.5 12.7625L51.5 3.11765L45.5 3.11765L45.5 12.7625L51.5 12.7625ZM45.9274 16.7854C47.1734 17.1233 48.4501 16.88 49.4336 16.2974C50.4379 15.7025 51.5 14.5007 51.5 12.7625L45.5 12.7625C45.5 11.8487 46.0662 11.3185 46.3757 11.1352C46.6644 10.9641 47.0474 10.8724 47.4977 10.9945L45.9274 16.7854ZM45.3235 16.7059C45.5366 16.7059 45.7383 16.7341 45.9274 16.7854L47.4977 10.9945C46.8014 10.8057 46.0718 10.7059 45.3235 10.7059L45.3235 16.7059ZM43.0294 19C43.0294 17.733 44.0565 16.7059 45.3235 16.7059L45.3235 10.7059C40.7428 10.7059 37.0294 14.4193 37.0294 19L43.0294 19Z" fill="#262626" mask="url(#path-3-inside-1_1862:17136)"/>
</g>
<defs>
<clipPath id="clip0_1862:17136">
<rect width="96" height="96" fill="white" transform="translate(0.5)"/>
</clipPath>
</defs>
</svg>
