<svg width="96" height="96" viewBox="0 0 96 96" fill="none" xmlns="http://www.w3.org/2000/svg">
<path fill-rule="evenodd" clip-rule="evenodd" d="M21.0011 64H18.334V69.3333C18.334 75.2244 23.1096 80 29.0006 80H66.334C72.225 80 77.0006 75.2244 77.0006 69.3333V64H74.3344H71.6673H23.6673H21.0011ZM53.0011 43.6655V16H42.3344V43.6655H34.1678H29.0011L47.6678 61.3333L66.3344 43.6655H61.8344H53.0011Z" fill="#CCE2F0"/>
<circle cx="24.0406" cy="13.5455" r="11.0455" stroke="#262626" stroke-width="3"/>
<path d="M24.04 47.6984V37.2438" stroke="#262626" stroke-width="3"/>
<path d="M24.04 35.1529V30.9711" stroke="#262626" stroke-width="3"/>
<mask id="path-5-inside-1_1862:17162" fill="white">
<path fill-rule="evenodd" clip-rule="evenodd" d="M16.1405 30.2727C7.32919 33.4949 1.04004 41.9531 1.04004 51.8802H47.04C47.04 41.9531 40.7508 33.4948 31.9394 30.2726L26.1308 47.6984H21.949L16.1405 30.2727Z"/>
</mask>
<path d="M1.04004 51.8802H-1.95996V54.8802H1.04004V51.8802ZM16.1405 30.2727L18.9865 29.324L18.0101 26.3947L15.1101 27.4552L16.1405 30.2727ZM47.04 51.8802V54.8802H50.04V51.8802H47.04ZM31.9394 30.2726L32.9698 27.4551L30.0698 26.3947L29.0934 29.324L31.9394 30.2726ZM26.1308 47.6984V50.6984H28.2931L28.9769 48.6471L26.1308 47.6984ZM21.949 47.6984L19.103 48.6471L19.7867 50.6984H21.949V47.6984ZM4.04004 51.8802C4.04004 43.2527 9.50441 35.8938 17.1708 33.0902L15.1101 27.4552C5.15398 31.0961 -1.95996 40.6536 -1.95996 51.8802H4.04004ZM47.04 48.8802H1.04004V54.8802H47.04V48.8802ZM30.9091 33.0902C38.5756 35.8937 44.04 43.2526 44.04 51.8802H50.04C50.04 40.6535 42.926 31.096 32.9698 27.4551L30.9091 33.0902ZM29.0934 29.324L23.2848 46.7497L28.9769 48.6471L34.7855 31.2213L29.0934 29.324ZM26.1308 44.6984H21.949V50.6984H26.1308V44.6984ZM24.7951 46.7497L18.9865 29.324L13.2944 31.2214L19.103 48.6471L24.7951 46.7497Z" fill="#262626" mask="url(#path-5-inside-1_1862:17162)"/>
<path fill-rule="evenodd" clip-rule="evenodd" d="M62.6667 56H56V62.6667H62.6667V56ZM62.6667 72.6667H56V79.3333H62.6667V72.6667ZM56 89.3333H62.6667V96H56V89.3333ZM79.3333 56H72.6667V62.6667H79.3333V56ZM72.6667 72.6667H79.3333V79.3333H72.6667V72.6667ZM79.3333 89.3333H72.6667V96H79.3333V89.3333ZM89.3333 56H96V62.6667H89.3333V56ZM96 72.6667H89.3333V79.3333H96V72.6667ZM89.3333 89.3333H96V96H89.3333V89.3333Z" fill="#262626"/>
</svg>
